<?xml version="1.0" standalone="no"?>
<!DOCTYPE svg PUBLIC "-//W3C//DTD SVG 20010904//EN"
 "http://www.w3.org/TR/2001/REC-SVG-20010904/DTD/svg10.dtd">
<svg version="1.0" xmlns="http://www.w3.org/2000/svg"
 width="16.000000pt" height="16.000000pt" viewBox="0 0 16.000000 16.000000"
 preserveAspectRatio="xMidYMid meet">
<metadata>
Created by potrace 1.11, written by Peter Selinger 2001-2013
</metadata>
<g transform="translate(0.000000,16.000000) scale(0.006154,-0.006154)"
fill="#000000" stroke="none">
<path d="M647 2593 c359 -2 947 -2 1305 0 359 1 66 2 -652 2 -718 0 -1011 -1
-653 -2z"/>
<path d="M67 1836 c-7 -18 2 -78 14 -92 4 -5 10 -183 11 -395 l3 -384 29 -82
c49 -141 135 -217 291 -258 167 -43 388 16 475 126 52 65 95 182 91 247 0 12
3 22 7 22 4 0 7 161 6 358 -1 334 0 358 18 375 27 26 24 71 -7 85 -35 16 -360
16 -373 -1 -16 -19 -11 -70 9 -99 18 -24 19 -49 19 -361 0 -184 -3 -355 -6
-381 -5 -35 -16 -57 -40 -83 -30 -32 -37 -34 -76 -29 -24 3 -43 5 -44 5 -17 9
-46 45 -54 67 -8 20 -12 150 -11 408 0 370 0 379 21 393 15 11 19 21 15 45 -3
17 -8 35 -11 40 -3 4 -90 8 -194 8 -148 -1 -189 -4 -193 -14z"/>
<path d="M1134 1843 c-15 -11 -13 -71 3 -77 10 -4 13 -102 13 -512 0 -442 -2
-510 -15 -524 -26 -28 -26 -59 -2 -74 17 -11 62 -15 183 -16 184 -1 211 6 207
55 -1 16 -10 35 -19 42 -16 12 -18 48 -18 450 -1 419 0 438 18 455 51 47 103
29 158 -56 l39 -61 -3 -291 -3 -291 -28 -42 c-16 -24 -49 -64 -74 -88 -53 -53
-65 -98 -38 -139 16 -25 21 -26 79 -22 62 5 186 52 186 69 0 5 4 8 9 6 5 -1
23 9 41 23 56 45 157 150 144 150 -3 0 3 12 14 28 32 44 62 184 62 285 0 291
-80 475 -257 589 l-68 43 -310 3 c-170 1 -315 -1 -321 -5z"/>
<path d="M2290 1785 c-102 -46 -124 -138 -81 -345 23 -108 29 -143 36 -195 2
-16 5 -30 6 -30 2 0 7 -36 13 -90 2 -22 5 -41 6 -42 1 -2 4 -16 5 -33 1 -16 4
-32 5 -35 3 -6 7 -22 9 -35 0 -5 10 -10 22 -10 11 0 17 -5 14 -10 -4 -6 -11
-8 -16 -5 -16 11 -88 -37 -115 -77 -20 -28 -27 -52 -29 -97 -3 -51 1 -66 25
-105 38 -59 87 -84 160 -82 57 2 103 21 132 53 49 54 58 163 19 226 -22 36
-81 80 -107 80 -8 0 -14 4 -14 9 0 4 7 8 15 8 8 0 14 3 14 8 -1 4 -1 9 0 12 3
6 12 69 14 97 1 12 5 24 9 28 4 4 4 13 2 20 -3 8 13 109 36 226 45 226 47 285
17 349 -34 70 -128 105 -197 75z"/>
</g>
</svg>
